<svg width="256" height="256" viewBox="0 0 256 256" fill="none" xmlns="http://www.w3.org/2000/svg">
<rect width="256" height="256" rx="60" fill="#242938"/>
<path d="M38.3036 59.6682C38.0498 60.5665 37.9229 91.8772 38.0498 129.219L38.4305 197.23L54.0397 197.615L69.522 198V127.936V58H54.2935C42.9991 58 38.8112 58.385 38.3036 59.6682Z" fill="white"/>
<path d="M130.436 127.936V197.872H145.665H160.893V127.936V58.0001H145.665H130.436V127.936Z" fill="white"/>
<path d="M176.122 72.7571V87.5142H197.061H218V72.7571V58H197.061H176.122V72.7571Z" fill="white"/>
<path d="M84.7505 127.936V142.693H99.9791H115.208V127.936V113.179H99.9791H84.7505V127.936Z" fill="white"/>
<path d="M176.122 127.936V142.693H192.112H207.975L207.594 128.193L207.213 113.82L191.731 113.435L176.122 113.05V127.936Z" fill="white"/>
</svg>
