<svg width="256" height="256" viewBox="0 0 256 256" fill="none" xmlns="http://www.w3.org/2000/svg">
<rect width="256" height="256" rx="60" fill="white"/>
<path d="M192.685 164.083H102.177C93.6575 164.083 86.7257 157.142 86.7257 148.613C86.7257 140.08 93.6567 133.139 102.177 133.139H151.606C166.031 133.139 177.766 121.389 177.766 106.945C177.766 92.5016 166.032 80.75 151.606 80.75H62.1845C59.7152 72.7836 52.2966 67 43.5292 67C32.7415 67 24 75.7528 24 86.5545C24 97.3562 32.7423 106.109 43.53 106.109C52.6178 106.109 60.2572 99.8935 62.4359 91.4743H151.607C160.125 91.4743 167.057 98.415 167.057 106.946C167.057 115.476 160.125 122.417 151.607 122.417H102.178C87.7529 122.417 76.0166 134.168 76.0166 148.613C76.0166 163.057 87.7521 174.807 102.178 174.807H192.684C195.011 183.001 202.54 189 211.471 189C222.259 189 231 180.247 231 169.446C231 158.644 222.259 149.891 211.471 149.891C202.54 149.891 195.012 155.889 192.685 164.083Z" fill="#F26B00"/>
</svg>
